<svg width="363" height="100" viewBox="0 0 363 100" fill="none" xmlns="http://www.w3.org/2000/svg">
<path d="M6.48853 2.18305L20.047 3.22254C25.0994 3.61408 29.56 3.96057 33.4289 4.26202C37.2978 4.56347 39.3845 4.73672 39.689 4.78176L40.0939 4.88052V23.5081H29.6552V74.0115H10.2882V20.3533H0V8.98648C0.0311449 6.21105 0.067482 4.3088 0.0986269 3.26931C0.129772 2.22983 0.218011 1.71008 0.352972 1.71008C0.487934 1.71008 2.50198 1.86601 6.48853 2.18305Z" fill="#EBE2D4"/>
<path d="M58.8847 44.2614C58.7808 40.301 58.1043 38.371 56.8551 38.4715C55.0348 38.4403 54.1229 40.5192 54.1195 44.7084L54.0209 74.7027L35.6194 74.183L35.6661 25.3583L51.8407 23.5808L54.1714 32.5672C55.3549 29.4175 56.7824 27.0735 58.4538 25.5351C60.1253 23.9966 62.4663 23.1598 65.477 23.0247C73.6889 22.6505 77.6685 28.9775 77.4159 42.0057L77.364 46.6262L58.7601 48.1491L58.8847 44.2614Z" fill="#EBE2D4"/>
<path d="M82.5858 16.2679C80.6895 14.6949 79.7257 12.4184 79.6946 9.43853C79.7292 6.42749 80.6929 4.11116 82.5858 2.48956C84.4788 0.867967 87.0032 0.0381145 90.1593 0C93.2738 0 95.774 0.803868 97.66 2.41161C99.546 4.01934 100.506 6.36165 100.541 9.43853C100.51 12.4184 99.546 14.6949 97.6496 16.2679C95.7532 17.841 93.2357 18.6276 90.097 18.6276C86.9825 18.6276 84.4788 17.841 82.5858 16.2679ZM99.4145 77.4053L80.8158 76.5425V25.2543L99.4197 23.6275L99.4145 77.4053Z" fill="#EBE2D4"/>
<path d="M119.062 30.7583C121.159 25.2733 125.248 22.4303 131.328 22.2294C136.602 22.0249 140.766 24.1576 143.822 28.6274C146.878 33.0972 148.435 39.8815 148.494 48.9805C148.459 58.8972 147.006 66.0783 144.133 70.5238C141.261 74.9694 137.24 77.1107 132.07 76.9479C129.473 76.9183 126.961 76.0159 124.938 74.3855C123.015 72.8108 121.669 70.6405 121.112 68.2162L121.564 96.3343L103.521 94.458V24.9216L118.19 23.6535L119.062 30.7583ZM126.718 49.2352C126.749 44.5333 126.554 41.1826 126.132 39.1834C125.711 37.1876 124.922 36.2208 123.775 36.2884C122.628 36.356 121.756 37.2967 121.268 39.3081C120.78 41.3195 120.546 44.6511 120.583 49.282C120.619 53.9129 120.775 57.1509 121.268 59.1571C121.761 61.1633 122.612 62.182 123.827 62.1508C124.943 62.182 125.711 61.2049 126.132 59.209C126.552 57.2132 126.749 53.9025 126.718 49.2352Z" fill="#EBE2D4"/>
<path d="M149.636 2.18305L163.194 3.22254C168.243 3.61408 172.704 3.96057 176.576 4.26202C180.449 4.56347 182.535 4.73672 182.836 4.78176L183.241 4.88052V23.5081H172.803V74.0115H153.436V20.3533H143.147V8.98648C143.178 6.21105 143.215 4.3088 143.246 3.26931C143.277 2.22983 143.365 1.71008 143.5 1.71008C143.635 1.71008 145.644 1.86601 149.636 2.18305Z" fill="#CE5737"/>
<path d="M202.032 44.2614C201.928 40.301 201.252 38.371 200.002 38.4715C198.179 38.4403 197.267 40.5192 197.267 44.7084L197.163 74.7027L178.762 74.183L178.814 25.3583L194.983 23.5808L197.319 32.5672C198.495 29.4175 199.923 27.0735 201.601 25.5351C203.28 23.9966 205.619 23.1598 208.619 23.0247C216.831 22.6505 220.811 28.9775 220.558 42.0057L220.506 46.6262L201.902 48.1491L202.032 44.2614Z" fill="#CE5737"/>
<path d="M250.166 23.4509L267.504 22.5881V75.5759L252.632 74.8638L251.822 67.8109C249.694 73.2266 245.605 75.9847 239.556 76.0852C234.283 76.151 230.13 73.9421 227.098 69.4585C224.067 64.9748 222.522 58.2338 222.463 49.2353C222.494 39.4537 223.939 32.3644 226.797 27.9674C229.656 23.5704 233.651 21.4724 238.783 21.6733C241.391 21.7015 243.912 22.618 245.931 24.272C247.854 25.8323 249.195 27.997 249.736 30.4154L250.166 23.4509ZM247.052 62.1769C248.267 62.2081 249.128 61.2309 249.585 59.2351C250.042 57.2393 250.296 53.939 250.296 49.334C250.296 44.7291 250.052 41.4703 249.559 39.4589C249.066 37.4475 248.235 36.4288 247.052 36.4652C245.905 36.3976 245.116 37.354 244.695 39.329C244.275 41.304 244.078 44.6356 244.114 49.3028C244.15 53.9701 244.275 57.3069 244.695 59.3027C245.116 61.2985 245.926 62.2444 247.073 62.1561L247.052 62.1769Z" fill="#CE5737"/>
<path d="M293.121 55.5294L312.129 54.36V54.9681C312.091 62.2099 310.266 67.8525 306.653 71.8961C303.04 75.9397 297.837 77.9962 291.044 78.0655H290.998C283.087 78.0655 277.51 75.6279 274.268 70.7527C271.122 66.0161 269.551 59.2837 269.554 50.5555C269.623 32.6556 276.787 23.3002 291.044 22.4894C297.467 22.2191 302.571 23.9967 306.357 27.822C310.105 31.9487 311.996 37.7508 312.031 45.2281V45.8362L293.344 45.9402V45.3321C293.299 40.6094 292.619 38.248 291.304 38.248C290.321 38.248 289.629 39.1783 289.227 41.039C288.826 42.8997 288.615 45.9437 288.594 50.1709C288.594 54.6753 288.797 57.8908 289.201 59.8173C289.606 61.7438 290.283 62.6742 291.231 62.6083C292.477 62.5044 293.119 60.3561 293.157 56.1635L293.121 55.5294Z" fill="#CE5737"/>
<path d="M342.023 77.1507L333.054 57.9202L333.459 76.3919L314.502 75.581L314.548 4.46985L333.511 3.65906L333.054 42.7905L340.606 25.1816L360.627 24.7762L350.391 50.2436L362.849 79.1257L342.023 77.1507Z" fill="#CE5737"/>
<path d="M147.046 88.6388H144.921C144.861 88.2903 144.749 87.9816 144.586 87.7126C144.423 87.4399 144.221 87.2088 143.978 87.0195C143.736 86.8301 143.459 86.688 143.149 86.5933C142.842 86.4948 142.51 86.4456 142.154 86.4456C141.522 86.4456 140.961 86.6047 140.472 86.9229C139.984 87.2373 139.601 87.6994 139.325 88.3092C139.048 88.9153 138.91 89.6558 138.91 90.5308C138.91 91.421 139.048 92.171 139.325 92.7808C139.605 93.3869 139.988 93.8452 140.472 94.1558C140.961 94.4626 141.52 94.616 142.149 94.616C142.497 94.616 142.823 94.5706 143.126 94.4797C143.433 94.385 143.707 94.2467 143.95 94.0649C144.196 93.8831 144.402 93.6596 144.569 93.3945C144.739 93.1293 144.857 92.8263 144.921 92.4854L147.046 92.4967C146.967 93.0498 146.794 93.5687 146.529 94.0535C146.268 94.5384 145.925 94.9664 145.501 95.3376C145.077 95.7051 144.58 95.9929 144.012 96.2013C143.444 96.4058 142.813 96.5081 142.12 96.5081C141.097 96.5081 140.185 96.2713 139.382 95.7979C138.579 95.3244 137.946 94.6407 137.484 93.7467C137.022 92.8528 136.791 91.7808 136.791 90.5308C136.791 89.277 137.024 88.2051 137.489 87.3149C137.955 86.421 138.59 85.7373 139.393 85.2638C140.196 84.7903 141.105 84.5535 142.12 84.5535C142.768 84.5535 143.37 84.6445 143.927 84.8263C144.484 85.0081 144.98 85.2751 145.416 85.6274C145.851 85.9759 146.209 86.4039 146.489 86.9115C146.774 87.4153 146.959 87.991 147.046 88.6388Z" fill="#EBE2D4"/>
<path d="M148.886 96.349V87.6217H150.88V89.0763H150.971C151.13 88.5725 151.403 88.1842 151.789 87.9115C152.179 87.635 152.624 87.4967 153.124 87.4967C153.238 87.4967 153.365 87.5024 153.505 87.5138C153.649 87.5213 153.768 87.5346 153.863 87.5535V89.4456C153.776 89.4153 153.638 89.3888 153.448 89.366C153.263 89.3395 153.083 89.3263 152.909 89.3263C152.534 89.3263 152.196 89.4077 151.897 89.5706C151.602 89.7297 151.369 89.9513 151.198 90.2354C151.028 90.5195 150.943 90.8471 150.943 91.2183V96.349H148.886Z" fill="#EBE2D4"/>
<path d="M158.734 96.5195C157.859 96.5195 157.103 96.3376 156.467 95.974C155.834 95.6066 155.347 95.0876 155.007 94.4172C154.666 93.7429 154.495 92.9494 154.495 92.0365C154.495 91.1388 154.666 90.3509 155.007 89.6729C155.351 88.991 155.832 88.4607 156.45 88.082C157.067 87.6994 157.793 87.5081 158.626 87.5081C159.164 87.5081 159.671 87.5952 160.149 87.7695C160.63 87.9399 161.054 88.2051 161.421 88.5649C161.793 88.9248 162.084 89.3831 162.296 89.9399C162.508 90.4929 162.614 91.152 162.614 91.9172V92.5479H155.461V91.1615H160.643C160.639 90.7676 160.554 90.4172 160.387 90.1104C160.221 89.7998 159.988 89.5554 159.688 89.3774C159.393 89.1994 159.048 89.1104 158.654 89.1104C158.234 89.1104 157.864 89.2126 157.546 89.4172C157.228 89.6179 156.98 89.8831 156.802 90.2126C156.628 90.5384 156.539 90.8963 156.535 91.2865V92.4967C156.535 93.0043 156.628 93.4399 156.813 93.8035C156.999 94.1634 157.258 94.4399 157.592 94.6331C157.925 94.8225 158.315 94.9172 158.762 94.9172C159.061 94.9172 159.332 94.8755 159.575 94.7922C159.817 94.7051 160.027 94.5782 160.205 94.4115C160.383 94.2448 160.518 94.0384 160.609 93.7922L162.529 94.0081C162.408 94.5157 162.177 94.9589 161.836 95.3376C161.499 95.7126 161.067 96.0043 160.541 96.2126C160.014 96.4172 159.412 96.5195 158.734 96.5195Z" fill="#EBE2D4"/>
<path d="M166.866 96.5251C166.313 96.5251 165.815 96.4267 165.372 96.2297C164.932 96.0289 164.584 95.7335 164.326 95.3433C164.072 94.9532 163.945 94.4721 163.945 93.9001C163.945 93.4077 164.036 93.0005 164.218 92.6785C164.4 92.3566 164.648 92.099 164.963 91.9058C165.277 91.7126 165.631 91.5668 166.025 91.4683C166.423 91.366 166.834 91.2922 167.258 91.2467C167.769 91.1937 168.184 91.1463 168.502 91.1047C168.82 91.0592 169.052 90.991 169.195 90.9001C169.343 90.8054 169.417 90.6596 169.417 90.4626V90.4285C169.417 90.0005 169.29 89.6691 169.036 89.4342C168.783 89.1994 168.417 89.082 167.94 89.082C167.436 89.082 167.036 89.1918 166.741 89.4115C166.449 89.6312 166.252 89.8907 166.15 90.1899L164.23 89.9172C164.381 89.3869 164.631 88.9437 164.98 88.5876C165.328 88.2278 165.754 87.9588 166.258 87.7808C166.762 87.599 167.319 87.5081 167.928 87.5081C168.349 87.5081 168.767 87.5573 169.184 87.6558C169.601 87.7543 169.981 87.9172 170.326 88.1445C170.671 88.3679 170.947 88.6729 171.156 89.0592C171.368 89.4456 171.474 89.9285 171.474 90.5081V96.349H169.497V95.1501H169.428C169.303 95.3926 169.127 95.6198 168.9 95.832C168.677 96.0403 168.394 96.2089 168.053 96.3376C167.716 96.4626 167.32 96.5251 166.866 96.5251ZM167.4 95.0138C167.813 95.0138 168.171 94.9323 168.474 94.7695C168.777 94.6028 169.01 94.3831 169.173 94.1104C169.339 93.8376 169.423 93.5403 169.423 93.2183V92.1899C169.358 92.2429 169.248 92.2922 169.093 92.3376C168.942 92.3831 168.771 92.4229 168.582 92.457C168.392 92.491 168.205 92.5213 168.019 92.5479C167.834 92.5744 167.673 92.5971 167.536 92.616C167.23 92.6577 166.955 92.7259 166.713 92.8206C166.47 92.9153 166.279 93.0479 166.139 93.2183C165.998 93.385 165.928 93.6009 165.928 93.866C165.928 94.2448 166.067 94.5308 166.343 94.724C166.62 94.9172 166.972 95.0138 167.4 95.0138Z" fill="#EBE2D4"/>
<path d="M177.9 87.6217V89.2126H172.883V87.6217H177.9ZM174.122 85.5308H176.178V93.724C176.178 94.0005 176.22 94.2126 176.303 94.3604C176.391 94.5043 176.504 94.6028 176.644 94.6558C176.784 94.7088 176.94 94.7354 177.11 94.7354C177.239 94.7354 177.356 94.7259 177.463 94.707C177.572 94.688 177.656 94.671 177.713 94.6558L178.059 96.2638C177.949 96.3016 177.792 96.3433 177.588 96.3888C177.387 96.4342 177.141 96.4607 176.849 96.4683C176.334 96.4835 175.87 96.4058 175.457 96.2354C175.044 96.0611 174.716 95.7922 174.474 95.4285C174.235 95.0649 174.118 94.6104 174.122 94.0649V85.5308Z" fill="#EBE2D4"/>
<path d="M183.39 96.5195C182.515 96.5195 181.759 96.3376 181.123 95.974C180.49 95.6066 180.004 95.0876 179.663 94.4172C179.322 93.7429 179.151 92.9494 179.151 92.0365C179.151 91.1388 179.322 90.3509 179.663 89.6729C180.007 88.991 180.489 88.4607 181.106 88.082C181.723 87.6994 182.449 87.5081 183.282 87.5081C183.82 87.5081 184.328 87.5952 184.805 87.7695C185.286 87.9399 185.71 88.2051 186.078 88.5649C186.449 88.9248 186.74 89.3831 186.953 89.9399C187.165 90.4929 187.271 91.152 187.271 91.9172V92.5479H180.117V91.1615H185.299C185.295 90.7676 185.21 90.4172 185.043 90.1104C184.877 89.7998 184.644 89.5554 184.345 89.3774C184.049 89.1994 183.704 89.1104 183.311 89.1104C182.89 89.1104 182.521 89.2126 182.203 89.4172C181.884 89.6179 181.636 89.8831 181.458 90.2126C181.284 90.5384 181.195 90.8963 181.191 91.2865V92.4967C181.191 93.0043 181.284 93.4399 181.47 93.8035C181.655 94.1634 181.915 94.4399 182.248 94.6331C182.581 94.8225 182.972 94.9172 183.418 94.9172C183.718 94.9172 183.989 94.8755 184.231 94.7922C184.473 94.7051 184.684 94.5782 184.862 94.4115C185.04 94.2448 185.174 94.0384 185.265 93.7922L187.186 94.0081C187.064 94.5157 186.833 94.9589 186.492 95.3376C186.155 95.7126 185.723 96.0043 185.197 96.2126C184.67 96.4172 184.068 96.5195 183.39 96.5195Z" fill="#EBE2D4"/>
<path d="M194.258 99.6217C193.978 99.6217 193.718 99.599 193.48 99.5535C193.245 99.5119 193.057 99.4626 192.917 99.4058L193.394 97.8035C193.694 97.8907 193.961 97.9323 194.195 97.9285C194.43 97.9248 194.637 97.8509 194.815 97.707C194.997 97.5668 195.15 97.332 195.275 97.0024L195.451 96.5308L192.286 87.6217H194.468L196.48 94.2126H196.57L198.588 87.6217H200.775L197.281 97.4058C197.118 97.8679 196.902 98.2638 196.633 98.5933C196.364 98.9266 196.034 99.1804 195.644 99.3547C195.258 99.5327 194.796 99.6217 194.258 99.6217Z" fill="#EBE2D4"/>
<path d="M205.708 96.5195C204.856 96.5195 204.117 96.332 203.492 95.957C202.867 95.582 202.382 95.0573 202.038 94.3831C201.697 93.7088 201.526 92.921 201.526 92.0195C201.526 91.1179 201.697 90.3282 202.038 89.6501C202.382 88.9721 202.867 88.4456 203.492 88.0706C204.117 87.6956 204.856 87.5081 205.708 87.5081C206.561 87.5081 207.299 87.6956 207.924 88.0706C208.549 88.4456 209.032 88.9721 209.373 89.6501C209.718 90.3282 209.89 91.1179 209.89 92.0195C209.89 92.921 209.718 93.7088 209.373 94.3831C209.032 95.0573 208.549 95.582 207.924 95.957C207.299 96.332 206.561 96.5195 205.708 96.5195ZM205.72 94.8717C206.182 94.8717 206.568 94.7448 206.879 94.491C207.189 94.2335 207.42 93.8888 207.572 93.457C207.727 93.0251 207.805 92.5441 207.805 92.0138C207.805 91.4797 207.727 90.9967 207.572 90.5649C207.42 90.1293 207.189 89.7827 206.879 89.5251C206.568 89.2676 206.182 89.1388 205.72 89.1388C205.246 89.1388 204.852 89.2676 204.538 89.5251C204.227 89.7827 203.994 90.1293 203.839 90.5649C203.687 90.9967 203.612 91.4797 203.612 92.0138C203.612 92.5441 203.687 93.0251 203.839 93.457C203.994 93.8888 204.227 94.2335 204.538 94.491C204.852 94.7448 205.246 94.8717 205.72 94.8717Z" fill="#EBE2D4"/>
<path d="M217.198 92.6785V87.6217H219.255V96.349H217.261V94.7979H217.17C216.973 95.2865 216.649 95.6861 216.198 95.9967C215.751 96.3073 215.2 96.4626 214.545 96.4626C213.973 96.4626 213.467 96.3357 213.028 96.082C212.592 95.8244 212.251 95.4513 212.005 94.9626C211.759 94.4702 211.636 93.8755 211.636 93.1785V87.6217H213.693V92.8604C213.693 93.4134 213.844 93.8528 214.147 94.1785C214.45 94.5043 214.848 94.6672 215.34 94.6672C215.643 94.6672 215.937 94.5933 216.221 94.4456C216.505 94.2979 216.738 94.0782 216.92 93.7865C217.105 93.491 217.198 93.1217 217.198 92.6785Z" fill="#EBE2D4"/>
<path d="M221.37 96.349V87.6217H223.364V89.0763H223.455C223.614 88.5725 223.887 88.1842 224.274 87.9115C224.664 87.635 225.109 87.4967 225.609 87.4967C225.722 87.4967 225.849 87.5024 225.989 87.5138C226.133 87.5213 226.253 87.5346 226.347 87.5535V89.4456C226.26 89.4153 226.122 89.3888 225.933 89.366C225.747 89.3395 225.567 89.3263 225.393 89.3263C225.018 89.3263 224.681 89.4077 224.382 89.5706C224.086 89.7297 223.853 89.9513 223.683 90.2354C223.512 90.5195 223.427 90.8471 223.427 91.2183V96.349H221.37Z" fill="#EBE2D4"/>
<path d="M233.739 91.2354V96.349H231.683V87.6217H233.649V89.1047H233.751C233.952 88.616 234.272 88.2278 234.711 87.9399C235.154 87.652 235.702 87.5081 236.353 87.5081C236.955 87.5081 237.48 87.6369 237.927 87.8945C238.378 88.152 238.726 88.5251 238.972 89.0138C239.222 89.5024 239.346 90.0952 239.342 90.7922V96.349H237.285V91.1104C237.285 90.527 237.133 90.0706 236.83 89.741C236.531 89.4115 236.116 89.2467 235.586 89.2467C235.226 89.2467 234.906 89.3263 234.626 89.4854C234.349 89.6407 234.132 89.866 233.972 90.1615C233.817 90.457 233.739 90.8149 233.739 91.2354Z" fill="#EBE2D4"/>
<path d="M245.296 96.5195C244.421 96.5195 243.666 96.3376 243.029 95.974C242.397 95.6066 241.91 95.0876 241.569 94.4172C241.228 93.7429 241.058 92.9494 241.058 92.0365C241.058 91.1388 241.228 90.3509 241.569 89.6729C241.914 88.991 242.395 88.4607 243.012 88.082C243.63 87.6994 244.355 87.5081 245.188 87.5081C245.726 87.5081 246.234 87.5952 246.711 87.7695C247.192 87.9399 247.616 88.2051 247.984 88.5649C248.355 88.9248 248.647 89.3831 248.859 89.9399C249.071 90.4929 249.177 91.152 249.177 91.9172V92.5479H242.024V91.1615H247.205C247.202 90.7676 247.116 90.4172 246.95 90.1104C246.783 89.7998 246.55 89.5554 246.251 89.3774C245.955 89.1994 245.611 89.1104 245.217 89.1104C244.796 89.1104 244.427 89.2126 244.109 89.4172C243.791 89.6179 243.543 89.8831 243.364 90.2126C243.19 90.5384 243.101 90.8963 243.097 91.2865V92.4967C243.097 93.0043 243.19 93.4399 243.376 93.8035C243.561 94.1634 243.821 94.4399 244.154 94.6331C244.488 94.8225 244.878 94.9172 245.325 94.9172C245.624 94.9172 245.895 94.8755 246.137 94.7922C246.38 94.7051 246.59 94.5782 246.768 94.4115C246.946 94.2448 247.08 94.0384 247.171 93.7922L249.092 94.0081C248.971 94.5157 248.739 94.9589 248.399 95.3376C248.061 95.7126 247.63 96.0043 247.103 96.2126C246.577 96.4172 245.974 96.5195 245.296 96.5195Z" fill="#EBE2D4"/>
<path d="M252.411 87.6217L254.173 90.8433L255.963 87.6217H258.139L255.508 91.9854L258.184 96.349H256.019L254.173 93.207L252.343 96.349H250.161L252.82 91.9854L250.23 87.6217H252.411Z" fill="#EBE2D4"/>
<path d="M264.087 87.6217V89.2126H259.07V87.6217H264.087ZM260.309 85.5308H262.366V93.724C262.366 94.0005 262.408 94.2126 262.491 94.3604C262.578 94.5043 262.692 94.6028 262.832 94.6558C262.972 94.7088 263.127 94.7354 263.298 94.7354C263.427 94.7354 263.544 94.7259 263.65 94.707C263.76 94.688 263.843 94.671 263.9 94.6558L264.247 96.2638C264.137 96.3016 263.98 96.3433 263.775 96.3888C263.574 96.4342 263.328 96.4607 263.036 96.4683C262.521 96.4835 262.057 96.4058 261.644 96.2354C261.231 96.0611 260.904 95.7922 260.661 95.4285C260.423 95.0649 260.305 94.6104 260.309 94.0649V85.5308Z" fill="#EBE2D4"/>
<path d="M272.288 96.5251C271.735 96.5251 271.237 96.4267 270.793 96.2297C270.354 96.0289 270.006 95.7335 269.748 95.3433C269.494 94.9532 269.367 94.4721 269.367 93.9001C269.367 93.4077 269.458 93.0005 269.64 92.6785C269.822 92.3566 270.07 92.099 270.384 91.9058C270.699 91.7126 271.053 91.5668 271.447 91.4683C271.845 91.366 272.256 91.2922 272.68 91.2467C273.191 91.1937 273.606 91.1463 273.924 91.1047C274.242 91.0592 274.473 90.991 274.617 90.9001C274.765 90.8054 274.839 90.6596 274.839 90.4626V90.4285C274.839 90.0005 274.712 89.6691 274.458 89.4342C274.204 89.1994 273.839 89.082 273.362 89.082C272.858 89.082 272.458 89.1918 272.163 89.4115C271.871 89.6312 271.674 89.8907 271.572 90.1899L269.651 89.9172C269.803 89.3869 270.053 88.9437 270.401 88.5876C270.75 88.2278 271.176 87.9588 271.68 87.7808C272.184 87.599 272.74 87.5081 273.35 87.5081C273.771 87.5081 274.189 87.5573 274.606 87.6558C275.023 87.7543 275.403 87.9172 275.748 88.1445C276.093 88.3679 276.369 88.6729 276.578 89.0592C276.79 89.4456 276.896 89.9285 276.896 90.5081V96.349H274.918V95.1501H274.85C274.725 95.3926 274.549 95.6198 274.322 95.832C274.098 96.0403 273.816 96.2089 273.475 96.3376C273.138 96.4626 272.742 96.5251 272.288 96.5251ZM272.822 95.0138C273.235 95.0138 273.593 94.9323 273.896 94.7695C274.199 94.6028 274.432 94.3831 274.595 94.1104C274.761 93.8376 274.845 93.5403 274.845 93.2183V92.1899C274.78 92.2429 274.67 92.2922 274.515 92.3376C274.364 92.3831 274.193 92.4229 274.004 92.457C273.814 92.491 273.627 92.5213 273.441 92.5479C273.256 92.5744 273.095 92.5971 272.958 92.616C272.651 92.6577 272.377 92.7259 272.134 92.8206C271.892 92.9153 271.701 93.0479 271.561 93.2183C271.42 93.385 271.35 93.6009 271.35 93.866C271.35 94.2448 271.489 94.5308 271.765 94.724C272.042 94.9172 272.394 95.0138 272.822 95.0138Z" fill="#EBE2D4"/>
<path d="M282.203 96.5024C281.517 96.5024 280.903 96.3263 280.362 95.974C279.82 95.6217 279.392 95.1104 279.078 94.4399C278.763 93.7695 278.606 92.9551 278.606 91.9967C278.606 91.027 278.765 90.2088 279.083 89.5422C279.405 88.8717 279.839 88.366 280.384 88.0251C280.93 87.6804 281.538 87.5081 282.208 87.5081C282.72 87.5081 283.14 87.5952 283.47 87.7695C283.799 87.9399 284.061 88.1463 284.254 88.3888C284.447 88.6274 284.596 88.8528 284.703 89.0649H284.788V84.7126H286.85V96.349H284.828V94.974H284.703C284.596 95.1861 284.443 95.4115 284.242 95.6501C284.042 95.885 283.776 96.0857 283.447 96.2524C283.117 96.4191 282.703 96.5024 282.203 96.5024ZM282.776 94.8149C283.212 94.8149 283.583 94.6975 283.89 94.4626C284.197 94.224 284.43 93.8926 284.589 93.4683C284.748 93.0441 284.828 92.5498 284.828 91.9854C284.828 91.421 284.748 90.9304 284.589 90.5138C284.434 90.0971 284.203 89.7732 283.896 89.5422C283.593 89.3111 283.22 89.1956 282.776 89.1956C282.318 89.1956 281.936 89.3149 281.629 89.5535C281.322 89.7922 281.091 90.1217 280.936 90.5422C280.78 90.9626 280.703 91.4437 280.703 91.9854C280.703 92.5308 280.78 93.0176 280.936 93.4456C281.095 93.8698 281.328 94.2051 281.634 94.4513C281.945 94.6937 282.326 94.8149 282.776 94.8149Z" fill="#EBE2D4"/>
<path d="M296.837 87.6217L293.73 96.349H291.457L288.349 87.6217H290.542L292.548 94.1047H292.639L294.65 87.6217H296.837Z" fill="#EBE2D4"/>
<path d="M301.828 96.5195C300.953 96.5195 300.197 96.3376 299.561 95.974C298.928 95.6066 298.441 95.0876 298.1 94.4172C297.759 93.7429 297.589 92.9494 297.589 92.0365C297.589 91.1388 297.759 90.3509 298.1 89.6729C298.445 88.991 298.926 88.4607 299.543 88.082C300.161 87.6994 300.886 87.5081 301.72 87.5081C302.257 87.5081 302.765 87.5952 303.242 87.7695C303.723 87.9399 304.148 88.2051 304.515 88.5649C304.886 88.9248 305.178 89.3831 305.39 89.9399C305.602 90.4929 305.708 91.152 305.708 91.9172V92.5479H298.555V91.1615H303.737C303.733 90.7676 303.648 90.4172 303.481 90.1104C303.314 89.7998 303.081 89.5554 302.782 89.3774C302.487 89.1994 302.142 89.1104 301.748 89.1104C301.328 89.1104 300.958 89.2126 300.64 89.4172C300.322 89.6179 300.074 89.8831 299.896 90.2126C299.722 90.5384 299.632 90.8963 299.629 91.2865V92.4967C299.629 93.0043 299.721 93.4399 299.907 93.8035C300.093 94.1634 300.352 94.4399 300.686 94.6331C301.019 94.8225 301.409 94.9172 301.856 94.9172C302.155 94.9172 302.426 94.8755 302.668 94.7922C302.911 94.7051 303.121 94.5782 303.299 94.4115C303.477 94.2448 303.612 94.0384 303.703 93.7922L305.623 94.0081C305.502 94.5157 305.271 94.9589 304.93 95.3376C304.593 95.7126 304.161 96.0043 303.634 96.2126C303.108 96.4172 302.506 96.5195 301.828 96.5195Z" fill="#EBE2D4"/>
<path d="M309.505 91.2354V96.349H307.448V87.6217H309.414V89.1047H309.516C309.717 88.616 310.037 88.2278 310.477 87.9399C310.92 87.652 311.467 87.5081 312.119 87.5081C312.721 87.5081 313.246 87.6369 313.693 87.8945C314.143 88.152 314.492 88.5251 314.738 89.0138C314.988 89.5024 315.111 90.0952 315.107 90.7922V96.349H313.051V91.1104C313.051 90.527 312.899 90.0706 312.596 89.741C312.297 89.4115 311.882 89.2467 311.352 89.2467C310.992 89.2467 310.672 89.3263 310.391 89.4854C310.115 89.6407 309.897 89.866 309.738 90.1615C309.583 90.457 309.505 90.8149 309.505 91.2354Z" fill="#EBE2D4"/>
<path d="M321.556 87.6217V89.2126H316.539V87.6217H321.556ZM317.778 85.5308H319.835V93.724C319.835 94.0005 319.876 94.2126 319.96 94.3604C320.047 94.5043 320.16 94.6028 320.301 94.6558C320.441 94.7088 320.596 94.7354 320.766 94.7354C320.895 94.7354 321.013 94.7259 321.119 94.707C321.229 94.688 321.312 94.671 321.369 94.6558L321.715 96.2638C321.605 96.3016 321.448 96.3433 321.244 96.3888C321.043 96.4342 320.797 96.4607 320.505 96.4683C319.99 96.4835 319.526 96.4058 319.113 96.2354C318.7 96.0611 318.373 95.7922 318.13 95.4285C317.891 95.0649 317.774 94.6104 317.778 94.0649V85.5308Z" fill="#EBE2D4"/>
<path d="M328.839 92.6785V87.6217H330.896V96.349H328.901V94.7979H328.811C328.614 95.2865 328.29 95.6861 327.839 95.9967C327.392 96.3073 326.841 96.4626 326.186 96.4626C325.614 96.4626 325.108 96.3357 324.668 96.082C324.233 95.8244 323.892 95.4513 323.646 94.9626C323.4 94.4702 323.276 93.8755 323.276 93.1785V87.6217H325.333V92.8604C325.333 93.4134 325.485 93.8528 325.788 94.1785C326.091 94.5043 326.489 94.6672 326.981 94.6672C327.284 94.6672 327.578 94.5933 327.862 94.4456C328.146 94.2979 328.379 94.0782 328.561 93.7865C328.746 93.491 328.839 93.1217 328.839 92.6785Z" fill="#EBE2D4"/>
<path d="M333.011 96.349V87.6217H335.005V89.0763H335.096C335.255 88.5725 335.528 88.1842 335.914 87.9115C336.304 87.635 336.749 87.4967 337.249 87.4967C337.363 87.4967 337.49 87.5024 337.63 87.5138C337.774 87.5213 337.893 87.5346 337.988 87.5535V89.4456C337.901 89.4153 337.763 89.3888 337.573 89.366C337.388 89.3395 337.208 89.3263 337.034 89.3263C336.659 89.3263 336.321 89.4077 336.022 89.5706C335.727 89.7297 335.494 89.9513 335.323 90.2354C335.153 90.5195 335.068 90.8471 335.068 91.2183V96.349H333.011Z" fill="#EBE2D4"/>
<path d="M342.859 96.5195C341.984 96.5195 341.228 96.3376 340.592 95.974C339.959 95.6066 339.472 95.0876 339.132 94.4172C338.791 93.7429 338.62 92.9494 338.62 92.0365C338.62 91.1388 338.791 90.3509 339.132 89.6729C339.476 88.991 339.957 88.4607 340.575 88.082C341.192 87.6994 341.918 87.5081 342.751 87.5081C343.289 87.5081 343.796 87.5952 344.274 87.7695C344.755 87.9399 345.179 88.2051 345.546 88.5649C345.918 88.9248 346.209 89.3831 346.421 89.9399C346.633 90.4929 346.74 91.152 346.74 91.9172V92.5479H339.586V91.1615H344.768C344.764 90.7676 344.679 90.4172 344.512 90.1104C344.346 89.7998 344.113 89.5554 343.813 89.3774C343.518 89.1994 343.173 89.1104 342.779 89.1104C342.359 89.1104 341.989 89.2126 341.671 89.4172C341.353 89.6179 341.105 89.8831 340.927 90.2126C340.753 90.5384 340.664 90.8963 340.66 91.2865V92.4967C340.66 93.0043 340.753 93.4399 340.938 93.8035C341.124 94.1634 341.383 94.4399 341.717 94.6331C342.05 94.8225 342.44 94.9172 342.887 94.9172C343.186 94.9172 343.457 94.8755 343.7 94.7922C343.942 94.7051 344.152 94.5782 344.33 94.4115C344.508 94.2448 344.643 94.0384 344.734 93.7922L346.654 94.0081C346.533 94.5157 346.302 94.9589 345.961 95.3376C345.624 95.7126 345.192 96.0043 344.666 96.2126C344.139 96.4172 343.537 96.5195 342.859 96.5195Z" fill="#EBE2D4"/>
</svg>
